<?xml version="1.0" encoding="UTF-8" standalone="no"?>
<svg
   width="731"
   height="731"
   viewBox="0 0 21.93 21.93"
   fill="none"
   version="1.1"
   id="svg1"
   sodipodi:docname="Edit.svg"
   xmlns:inkscape="http://www.inkscape.org/namespaces/inkscape"
   xmlns:sodipodi="http://sodipodi.sourceforge.net/DTD/sodipodi-0.dtd"
   xmlns="http://www.w3.org/2000/svg"
   xmlns:svg="http://www.w3.org/2000/svg">
  <defs
     id="defs1" />
  <sodipodi:namedview
     id="namedview1"
     pagecolor="#88b783"
     bordercolor="#88b783"
     borderopacity="1"
     inkscape:showpageshadow="0"
     inkscape:pageopacity="0"
     inkscape:pagecheckerboard="0"
     inkscape:deskcolor="#88b783" />
  <path
     fill-rule="evenodd"
     clip-rule="evenodd"
     d="m 19.861362,0.8969777 a 3,3 0 0 0 -4.25,0 L 1.4713622,15.056978 a 3,3 0 0 0 -0.82000002,1.53 l -0.59,2.93 a 2,2 0 0 0 2.35000002,2.36 l 2.94,-0.59 a 3,3 0 0 0 1.53,-0.82 L 21.031362,6.3169777 a 3,3 0 0 0 0,-4.24 l -1.17,-1.17 z m -2.83,1.41 a 1,1 0 0 1 1.41,0 l 1.18,1.17 a 1,1 0 0 1 0,1.42 l -2.68,2.67 -2.58,-2.59 z m -4.09,4.09 L 2.8713622,16.466978 a 1,1 0 0 0 -0.27,0.51 l -0.59,2.94 2.94,-0.59 a 1,1 0 0 0 0.5,-0.27 L 15.541362,8.9769777 l -2.59,-2.58 z"
     fill="#88b783"
     id="path1" />
</svg>
