<?xml version="1.0" encoding="UTF-8" standalone="no"?>
<svg
   width="800"
   height="800"
   viewBox="0 0 24 24"
   fill="none"
   version="1.1"
   id="svg2"
   sodipodi:docname="Share.svg"
   xmlns:inkscape="http://www.inkscape.org/namespaces/inkscape"
   xmlns:sodipodi="http://sodipodi.sourceforge.net/DTD/sodipodi-0.dtd"
   xmlns="http://www.w3.org/2000/svg"
   xmlns:svg="http://www.w3.org/2000/svg">
  <defs
     id="defs2" />
  <sodipodi:namedview
     id="namedview2"
     pagecolor="#88b783"
     bordercolor="#88b783"
     borderopacity="1"
     inkscape:showpageshadow="0"
     inkscape:pageopacity="0"
     inkscape:pagecheckerboard="0"
     inkscape:deskcolor="#88b783" />
  <path
     fill-rule="evenodd"
     clip-rule="evenodd"
     d="m 19.160981,0.86000328 c -1.17,-1.53 -3.65,-0.72 -3.65,1.20000002 v 1.9 c -3.77,-0.04 -6.35,1.25 -8.07,3.07 a 12.04,12.04 0 0 0 -2.91,5.9999997 c -0.16,0.83 0.38,1.43 0.95,1.64 0.55,0.2 1.28,0.11 1.76,-0.44 a 10.3,10.3 0 0 1 8.27,-3.63 v 2.46 c 0,1.9 2.47,2.72 3.64,1.19 l 3.74,-4.9099997 a 2.94,2.94 0 0 0 0,-3.58 z m -12.17,10.80999972 c 1.8,-1.58 4.4,-3.0499997 8.53,-3.0499997 h 1.01 a 1,1 0 0 1 1.01,0.99 v 3.4599997 l 3.75,-4.9099997 a 0.98,0.98 0 0 0 0,-1.2 l -3.75,-4.9 v 2.9 a 1,1 0 0 1 -1.01,1 h -1.01 c -4.55,0 -6.6,2.43 -6.6,2.43 a 9.1,9.1 0 0 0 -1.93,3.2799997 z"
     fill="#88b783"
     id="path1" />
  <path
     d="m 6.51099,1 h -3 a 3,3 0 0 0 -3,3 v 16 a 3,3 0 0 0 3,3 h 16 a 3,3 0 0 0 3,-3 v -3 a 1,1 0 1 0 -2,0 v 3 a 1,1 0 0 1 -1,1 h -16 a 1,1 0 0 1 -1,-1 V 4 a 1,1 0 0 1 1,-1 h 3 a 1,1 0 0 0 0,-2 z"
     fill="#88b783"
     id="path2" />
</svg>
